<svg width="18" height="18" viewBox="0 0 18 18" fill="" xmlns="http://www.w3.org/2000/svg">
<g clip-path="url(#clip0_234_6333)">
<path d="M17.3511 8.74379L15.1892 7.66748L10.4363 10.034C10.0518 10.2255 9.62002 10.3267 9.18754 10.3267C8.75507 10.3267 8.3233 10.2255 7.93879 10.034L3.18582 7.66748L1.02403 8.74379C0.941713 8.78478 0.872462 8.84791 0.824055 8.92609C0.775648 9.00427 0.750004 9.09441 0.750004 9.18636C0.750004 9.27832 0.775648 9.36845 0.824055 9.44663C0.872462 9.52481 0.941713 9.58795 1.02403 9.62894L8.37952 13.2913C8.63249 13.4173 8.90997 13.4803 9.18754 13.4803C9.465 13.4803 9.74257 13.4174 9.99556 13.2915L17.3511 9.62894C17.4334 9.58795 17.5026 9.52481 17.551 9.44663C17.5994 9.36845 17.6251 9.27832 17.6251 9.18636C17.6251 9.09441 17.5994 9.00427 17.551 8.92609C17.5026 8.84791 17.4334 8.78478 17.3511 8.74379Z" fill=""/>
<path d="M17.3511 12.8874L15.1892 11.811L10.4363 14.1777C10.0518 14.3691 9.62002 14.4702 9.18754 14.4702C8.75507 14.4702 8.32331 14.3691 7.93879 14.1777L3.18582 11.811L1.02398 12.8874C0.941678 12.9284 0.872438 12.9915 0.824043 13.0697C0.775647 13.1478 0.750013 13.238 0.750023 13.3299C0.750027 13.4219 0.775665 13.512 0.824057 13.5902C0.872449 13.6684 0.94168 13.7315 1.02398 13.7726L8.3795 17.4349C8.63246 17.5609 8.90995 17.6239 9.18752 17.6239C9.46498 17.6238 9.74255 17.5609 9.99554 17.4349L17.351 13.7726C17.5189 13.6888 17.625 13.5174 17.625 13.3299C17.625 13.1423 17.5189 12.9709 17.3511 12.8874V12.8874ZM1.02398 5.48659L8.3795 9.14904C8.63246 9.27489 8.90995 9.33804 9.18752 9.33804C9.46509 9.33804 9.74255 9.27489 9.99554 9.14904L17.351 5.48659C17.4333 5.44561 17.5026 5.38249 17.551 5.30431C17.5994 5.22614 17.625 5.13601 17.625 5.04407C17.625 4.9521 17.5994 4.86195 17.551 4.78374C17.5026 4.70554 17.4334 4.64239 17.3511 4.60139L9.99551 0.938855C9.48948 0.687048 8.88551 0.687048 8.37947 0.938855L1.024 4.60141C0.941673 4.64241 0.872412 4.70557 0.82401 4.78377C0.775608 4.86198 0.749986 4.95214 0.750023 5.04412C0.750023 5.23156 0.856098 5.40305 1.02398 5.48656V5.48659Z" fill=""/>
</g>
<defs>
<clipPath id="clip0_234_6333">
<rect width="18" height="18" fill=""/>
</clipPath>
</defs>
</svg>
