<svg width="30" height="34" viewBox="0 0 30 34" fill="none" xmlns="http://www.w3.org/2000/svg">
    <path d="M0.595898 8.49511L15.0008 0.5L29.4041 8.49511L25.8412 10.0362L14.9915 4.0144L4.14954 10.0331L0.595898 8.49511Z"
          fill="white"/>
    <path d="M5.23454 10.5031L14.9915 5.0874L24.7563 10.5062L21.1407 12.0708L15.0612 8.69734L8.92746 12.1005L5.23454 10.5031Z"
          fill="white"/>
    <path d="M10.0125 12.5704L15.0612 9.76855L20.0558 12.5406L15.0008 14.7285L10.0125 12.5704Z" fill="#E64F30"/>
    <path d="M0 25.4327V9.25928L3.80591 10.9053V22.681L14.5365 28.6355V33.4999L0 25.4327Z" fill="white"/>
    <path d="M4.73454 22.1238V11.3081L8.46463 12.9228V19.7214L14.5364 23.0917V27.563L4.73454 22.1238Z" fill="white"/>
    <path d="M9.39335 19.1654V13.3237L14.5365 15.5492V22.0189L9.39335 19.1654Z" fill="#E64F30"/>
    <path d="M15.4651 22.0862V15.5491L20.729 13.272V19.1653L15.4651 22.0862Z" fill="#E64F30"/>
    <path d="M15.4651 27.5552V23.159L21.6576 19.7214V12.8695L25.2499 11.3159V22.1238L15.4651 27.5552Z" fill="white"/>
    <path d="M15.4651 33.4999V28.6261L26.1786 22.681V10.9131L30 9.25928V25.4327L15.4651 33.4999Z" fill="white"/>
</svg>
