<svg viewBox="0 0 18 18" fill="" xmlns="http://www.w3.org/2000/svg">
    <path fill-rule="evenodd" clip-rule="evenodd"
          d="M5.49765 1.5H12.4951C15.0451 1.5 16.5001 2.94 16.5001 5.4975V12.5025C16.5001 15.045 15.0527 16.5 12.5026 16.5H5.49765C2.94015 16.5 1.50015 15.045 1.50015 12.5025V5.4975C1.50015 2.94 2.94015 1.5 5.49765 1.5ZM9.61515 9.6225H11.7451C12.0901 9.615 12.3676 9.3375 12.3676 8.9925C12.3676 8.6475 12.0901 8.37 11.7451 8.37H9.61515V6.255C9.61515 5.91 9.33765 5.6325 8.99265 5.6325C8.64765 5.6325 8.37015 5.91 8.37015 6.255V8.37H6.24765C6.08265 8.37 5.92515 8.4375 5.80515 8.55C5.69265 8.67 5.62515 8.82675 5.62515 8.9925C5.62515 9.3375 5.90265 9.615 6.24765 9.6225H8.37015V11.745C8.37015 12.09 8.64765 12.3675 8.99265 12.3675C9.33765 12.3675 9.61515 12.09 9.61515 11.745V9.6225Z"
          fill="" stroke="transparent"/>
</svg>
