<svg width="20" height="20" viewBox="0 0 20 20" fill="none" xmlns="http://www.w3.org/2000/svg">
<path d="M20 10C20 4.49 15.52 0 10 0C4.49 0 0 4.49 0 10C0 15.52 4.49 20 10 20C15.4264 20 19.8478 15.6706 19.9962 10.2798L20 10Z" fill="#404040"/>
<path d="M7.06027 11.97C6.77027 12.27 6.30027 12.27 6.00027 11.98C5.85027 11.83 5.78027 11.64 5.78027 11.44C5.78027 11.25 5.85027 11.06 6.00027 10.92L9.47027 7.42996C9.61027 7.28996 9.80027 7.20996 10.0003 7.20996C10.2003 7.20996 10.3903 7.28996 10.5303 7.42996L14.0003 10.92C14.3003 11.21 14.3003 11.68 14.0003 11.98C13.7103 12.27 13.2303 12.27 12.9403 11.97L10.0003 9.01996L7.06027 11.97Z" fill="white"/>
</svg>
