<svg width="24" height="24" viewBox="0 0 24 24" fill="none" xmlns="http://www.w3.org/2000/svg">
<path fill-rule="evenodd" clip-rule="evenodd" d="M9.8766 15.2062C6.0326 15.2062 2.7496 15.7872 2.7496 18.1152C2.7496 20.4432 6.0126 21.0452 9.8766 21.0452C13.7216 21.0452 17.0036 20.4632 17.0036 18.1362C17.0036 15.8092 13.7416 15.2062 9.8766 15.2062Z" stroke="#191919" stroke-width="1.5" stroke-linecap="round" stroke-linejoin="round"/>
<path fill-rule="evenodd" clip-rule="evenodd" d="M9.8766 11.8859C12.3996 11.8859 14.4446 9.8409 14.4446 7.3179C14.4446 4.7949 12.3996 2.7499 9.8766 2.7499C7.3546 2.7499 5.3096 4.7949 5.3096 7.3179C5.3006 9.8319 7.3306 11.8769 9.8456 11.8859H9.8766Z" stroke="#191919" stroke-width="1.5" stroke-linecap="round" stroke-linejoin="round"/>
<path d="M19.2037 8.6691V12.6791" stroke="#191919" stroke-width="1.5" stroke-linecap="round" stroke-linejoin="round"/>
<path d="M21.2496 10.674H17.1596" stroke="#191919" stroke-width="1.5" stroke-linecap="round" stroke-linejoin="round"/>
</svg>
