<svg width="24" height="24" viewBox="0 0 24 24" fill="none" xmlns="http://www.w3.org/2000/svg">
<path fill-rule="evenodd" clip-rule="evenodd" d="M15.0402 4.0513C16.0502 4.4533 16.3592 5.8533 16.7722 6.3033C17.1852 6.7533 17.7762 6.9063 18.1032 6.9063C19.8412 6.9063 21.2502 8.3153 21.2502 10.0523V15.8473C21.2502 18.1773 19.3602 20.0673 17.0302 20.0673H6.9702C4.6392 20.0673 2.7502 18.1773 2.7502 15.8473V10.0523C2.7502 8.3153 4.1592 6.9063 5.8972 6.9063C6.2232 6.9063 6.8142 6.7533 7.2282 6.3033C7.6412 5.8533 7.9492 4.4533 8.9592 4.0513C9.9702 3.6493 14.0302 3.6493 15.0402 4.0513Z" stroke="#191919" stroke-width="1.5" stroke-linecap="round" stroke-linejoin="round"/>
<path d="M17.4955 9.5H17.5045" stroke="#191919" stroke-width="2" stroke-linecap="round" stroke-linejoin="round"/>
<path fill-rule="evenodd" clip-rule="evenodd" d="M15.1789 13.128C15.1789 11.372 13.7559 9.94901 11.9999 9.94901C10.2439 9.94901 8.8209 11.372 8.8209 13.128C8.8209 14.884 10.2439 16.307 11.9999 16.307C13.7559 16.307 15.1789 14.884 15.1789 13.128Z" stroke="#191919" stroke-width="1.5" stroke-linecap="round" stroke-linejoin="round"/>
</svg>
