<svg  viewBox="0 0 20 20" fill="none" xmlns="http://www.w3.org/2000/svg">
    <path fill-rule="evenodd" clip-rule="evenodd"
          d="M2 6.36733C2 3.95532 3.95532 2 6.36733 2H11.6841H13.9627C16.3747 2 18.33 3.95532 18.33 6.36733V11.6841V13.9627C18.33 16.3747 16.3747 18.33 13.9627 18.33H11.6841H6.36733C3.95532 18.33 2 16.3747 2 13.9627V6.36733ZM17.1907 11.1144V6.36733C17.1907 4.58454 15.7455 3.1393 13.9627 3.1393H12.2537V11.1144H17.1907ZM12.2537 12.2537H17.1907V13.9627C17.1907 15.7455 15.7455 17.1907 13.9627 17.1907H12.2537V12.2537ZM11.1144 11.6841V3.1393H6.36733C4.58454 3.1393 3.1393 4.58454 3.1393 6.36733V13.9627C3.1393 15.7455 4.58454 17.1907 6.36733 17.1907H11.1144V11.6841Z"
         stroke="transparent" fill=""/>
</svg>
