<svg width="24" height="24" viewBox="0 0 24 24" fill="none" xmlns="http://www.w3.org/2000/svg">
<path fill-rule="evenodd" clip-rule="evenodd" d="M14.5329 9.46706L7.71357 16.2869C7.53632 16.1843 7.36841 16.119 7.21915 16.1096C5.92245 16.0163 5.4187 16.1656 4.70971 15.5592C3.94476 14.9061 4.00073 13.1615 4.00073 11.8834C4.00073 10.6053 3.94476 8.86064 4.70971 8.20758C5.4187 7.60117 5.92245 7.75977 7.21915 7.65715C8.51584 7.55452 11.2585 3.59884 13.3761 4.84898C14.2344 5.54869 14.4676 6.85481 14.5329 9.46706Z" stroke="#191919" stroke-width="1.5" stroke-linecap="round" stroke-linejoin="round"/>
<path d="M14.5329 13.9172C14.4956 16.7907 14.2717 18.1901 13.3761 18.9178C12.3966 19.4962 11.2865 18.9644 10.2417 18.2087" stroke="#191919" stroke-width="1.5" stroke-linecap="round" stroke-linejoin="round"/>
<path d="M4.00119 20L7.71403 16.2869L14.5333 9.46706L20 4" stroke="#191919" stroke-width="1.5" stroke-linecap="round" stroke-linejoin="round"/>
</svg>
