<svg shape-rendering="geometricPrecision" width="128" height="55" viewBox="0 0 128 55" fill="none" xmlns="http://www.w3.org/2000/svg">
<path d="M115.871 28.3976C117.868 28.2478 119.67 27.4449 121.27 26.2547C124.145 24.1221 125.894 21.2331 126.952 17.9129C127.786 15.2924 128.115 12.597 127.965 9.84741C127.878 8.25961 127.594 6.72086 126.934 5.25957C126.026 3.24836 124.534 1.97037 122.256 1.72768C120.793 1.57277 119.391 1.88517 118.044 2.448C115.935 3.32839 114.446 4.9007 113.143 6.68214C110.318 10.5497 108.929 14.8716 108.858 20.1513C108.75 21.4293 109.166 23.1333 109.905 24.7727C111.086 27.3933 113.296 28.5886 115.871 28.395V28.3976ZM113.812 17.8458C114.259 14.7864 115.135 11.8664 116.842 9.23294C117.6 8.06081 118.515 7.02551 119.828 6.43687C121.041 5.89469 122.272 5.82756 123.408 6.64857C124.063 7.12104 124.379 7.83103 124.648 8.55652C125.103 9.79061 125.239 11.0738 125.218 12.3801C125.187 15.4241 124.492 18.2976 122.932 20.9491C122.014 22.5085 120.825 23.8123 119.17 24.6437C118.142 25.16 117.076 25.4518 115.937 24.9406C115.003 24.5223 114.501 23.7452 114.185 22.8571C113.606 21.2254 113.567 19.5369 113.814 17.8432L113.812 17.8458ZM105.191 15.406C106.672 13.6323 108.008 11.7683 108.655 9.52211C109.142 7.8362 109.05 6.17611 108.126 4.65285C107.172 3.08054 105.596 2.49705 103.825 2.39895C101.134 2.24662 98.6348 2.99276 96.2224 4.08744C95.3858 4.46696 95.4069 4.47212 95.2464 3.5969C95.0412 2.46349 94.6229 1.42303 93.5548 0.8034C91.5818 -0.340333 88.9984 0.45744 88.0066 2.48673C87.2042 4.12616 88.004 6.03152 89.7376 6.65632C90.5006 6.93257 91.2845 6.98937 92.0843 6.9713C92.7419 6.95581 92.7972 7.03584 92.5815 7.65547C92.442 8.06081 92.2842 8.45841 92.1264 8.856C91.1845 11.208 89.9218 13.3974 88.5985 15.5583C87.1937 17.8561 85.5969 20.0016 83.5107 21.7546C82.6005 22.5188 81.5981 23.1281 80.3748 23.2934C79.3857 23.4276 78.6333 23.0429 78.2019 22.1677C77.8941 21.5455 77.8046 20.8717 77.7915 20.1926C77.7546 18.1763 77.8309 16.1573 77.731 14.3785C77.731 12.4628 77.7257 10.782 77.731 9.10386C77.7362 8.05565 77.6547 7.01519 77.4258 5.98763C77.2837 5.34993 77.0838 4.73547 76.6866 4.19845C76.0657 3.35679 75.1607 3.10636 74.1821 3.51428C73.5981 3.75697 73.0614 4.08744 72.5721 4.47471C70.1886 6.36974 68.255 8.68044 66.3688 11.0299C65.3849 12.2536 64.4694 13.5316 63.5197 14.7864C63.4513 14.8767 63.3987 15.0394 63.2672 15.0032C63.0988 14.9542 63.1567 14.7838 63.1751 14.6599C63.2409 14.2081 63.3172 13.7588 63.3908 13.3096C63.8512 10.5006 64.6351 7.79489 65.9663 5.25182C66.524 4.18554 66.7818 3.04439 66.7055 1.83612C66.6292 0.609766 66.0163 0.0211178 64.7641 0.000463432C63.1593 -0.0279363 61.423 1.25263 60.8942 2.82494C59.7604 6.18901 59.0764 9.65894 58.3608 13.1211C58.082 14.4688 57.961 15.8707 56.885 16.9293C56.6114 17.1978 56.4115 17.536 56.1747 17.8406C54.349 20.1823 52.4285 22.4414 50.0872 24.3158C49.2822 24.9612 48.4061 25.4982 47.3696 25.7383C46.5594 25.9268 45.9595 25.6893 45.5413 24.9819C45.1519 24.3235 44.902 23.6187 44.8231 22.8596C44.7442 22.098 44.6468 21.3364 44.6047 20.5747C44.41 17.0222 44.7678 13.5445 46.12 10.2089C46.3857 9.55309 46.662 8.89731 46.7751 8.19248C46.8987 7.41795 46.6462 7.0281 45.8727 6.81639C45.0993 6.6021 44.2022 6.90675 43.7024 7.54445C43.2315 8.14601 42.9421 8.84826 42.6159 9.52211C40.6981 13.4748 38.7066 17.3837 36.0364 20.913C35.4287 21.7185 34.7605 22.4827 33.9055 23.0507C33.4688 23.3424 32.9716 23.6238 32.4376 23.345C31.9088 23.0662 31.872 22.5033 31.8614 21.9844C31.8167 19.3484 32.3797 16.8389 33.5109 14.4507C35.1683 10.9498 37.6833 8.15376 40.8322 5.87662C42.0056 5.02721 43.2288 4.25784 44.4837 3.53235C45.0546 3.20188 45.1756 2.88949 45.002 2.36538C44.7178 1.51856 43.584 0.718201 42.6738 0.751764C41.3637 0.798237 40.1298 1.15969 38.9565 1.71219C36.5862 2.82494 34.7658 4.58572 33.1189 6.54014C31.6957 8.22863 30.5434 10.0875 29.6095 12.0729C28.2258 15.0136 27.1577 18.0291 27.4813 21.3493C27.6128 22.7073 27.8864 24.0292 28.5678 25.24C29.3044 26.5516 30.4908 27.1919 31.9482 27.0112C32.7506 26.913 33.4688 26.5645 34.1397 26.1359C35.605 25.1987 36.7572 23.9388 37.8569 22.6299C38.8987 21.3906 39.8352 20.0739 40.7165 18.721C40.798 18.5971 40.8559 18.3699 41.0585 18.437C41.2242 18.4912 41.1611 18.6952 41.1611 18.8346C41.1611 19.7486 41.2269 20.6599 41.3558 21.5636C41.6241 23.4534 41.9687 25.3201 43.1131 26.9363C43.9865 28.1704 45.1782 28.7358 46.7067 28.5783C48.2404 28.4208 49.5873 27.7831 50.8396 26.9466C52.9547 25.5318 54.6857 23.7194 56.3115 21.8011C56.4457 21.6436 56.5509 21.3286 56.7903 21.4371C56.9429 21.5068 56.8376 21.814 56.8113 22.0154C56.5509 24.0163 56.3404 26.0249 56.3957 28.0464C56.4273 29.1799 57.298 29.7685 58.4082 29.4458C58.7555 29.3451 59.0685 29.1747 59.35 28.9449C60.0024 28.4105 60.4076 27.716 60.7601 26.975C61.4072 25.6144 62.0412 24.2486 62.7173 22.9009C63.838 20.6677 65.0876 18.5042 66.4477 16.4C67.9525 14.0712 69.552 11.8122 71.5251 9.8345C71.9013 9.45756 72.2722 9.06513 72.751 8.80179C73.3034 8.49972 73.6665 8.64172 73.8533 9.2252C73.9269 9.4524 73.9637 9.68476 73.9558 9.92228C73.9138 11.2467 73.8822 12.5712 73.8164 13.8957C73.7138 15.912 73.6349 17.9284 73.7112 19.9448C73.748 20.9181 73.9006 21.8811 74.19 22.8157C74.5399 23.944 75.0345 25.0025 76.0368 25.7254C77.5021 26.784 79.1121 26.6729 80.7247 26.1514C82.8425 25.4672 84.534 24.1144 86.1151 22.635C89.3693 19.5885 91.6975 15.9198 93.4417 11.8793C94.0915 10.3715 94.5992 8.81728 95.0175 7.23206C95.0833 6.98679 95.1517 6.74152 95.4227 6.6305C97.3299 5.86371 99.2846 5.31895 101.373 5.49451C102.741 5.60811 103.504 6.47043 103.515 7.81296C103.523 8.80695 103.265 9.74414 102.873 10.64C101.915 12.8113 100.497 14.6883 98.9058 16.4439C97.8166 17.6444 96.596 18.7107 95.4384 19.8415C94.6387 20.6238 94.6571 21.53 95.4174 22.3536C96.0646 23.0558 96.8459 23.6084 97.5299 24.2693C98.9084 25.5963 100.19 26.9853 100.937 28.7771C101.113 29.1979 101.029 29.4225 100.632 29.6265C99.9291 29.9905 99.2346 30.3752 98.5559 30.7806C96.4092 32.0637 94.4282 33.5586 92.6051 35.26C90.7242 37.0156 89.08 38.9493 87.7909 41.1671C86.3124 43.7076 85.4206 46.4159 85.4995 49.3695C85.5653 51.755 86.6965 53.4642 88.9484 54.4556C90.3217 55.0597 91.7659 55.0649 93.1944 54.9255C95.933 54.657 98.2586 53.4358 100.274 51.6363C103.052 49.1552 104.83 46.0389 106.051 42.6026C107.443 38.6886 107.813 34.6868 107.001 30.5895C106.227 26.6962 104.567 23.3373 101.192 20.962C100.779 20.6729 100.789 20.5438 101.168 20.1049C102.512 18.5429 103.875 16.9938 105.198 15.4112L105.191 15.406ZM92.6472 5.03754C92.4684 5.0427 92.2868 5.03754 92.1974 5.03754C91.666 5.06852 91.2398 4.98332 90.8294 4.83099C90.1875 4.59347 89.9086 4.18555 89.9402 3.55559C89.9744 2.85851 90.3375 2.37829 90.9609 2.20531C91.5739 2.03491 92.2263 2.23888 92.5578 2.73458C92.9524 3.32581 93.0155 4.00224 93.0208 4.68383C93.0208 4.91361 92.8814 5.03237 92.6499 5.04012L92.6472 5.03754ZM101.318 33.0706C101.818 32.8331 101.894 32.8718 101.963 33.4295C102.013 33.8245 102.023 34.2221 102.068 34.6171C102.113 35.0147 102.113 35.4097 102.084 35.8151C101.671 40.0621 100.595 44.1026 98.0534 47.65C96.7144 49.5166 94.9912 50.9573 92.8288 51.8506C92.2289 52.0984 91.5923 52.2404 90.9425 52.2172C89.5719 52.1655 88.6327 51.3497 88.346 50.0072C88.104 48.8634 88.1408 47.7249 88.3723 46.5863C88.9011 43.9761 90.1559 41.7299 91.9475 39.7549C94.5756 36.8607 97.7877 34.7514 101.318 33.0758V33.0706ZM19.126 25.6893C15.7982 27.889 12.6492 30.3081 9.8027 33.0964C7.58499 35.2677 5.55669 37.581 4.00719 40.2686C2.97331 42.063 2.14989 43.9322 1.86314 45.9951C1.55534 48.1999 1.70793 50.3454 2.80494 52.3514C3.631 53.8618 4.92006 54.7577 6.65108 54.9358C9.03453 55.1811 11.147 54.3988 13.0727 53.0847C15.2062 51.6285 16.7978 49.6741 18.1527 47.539C19.9389 44.7197 21.1701 41.6551 22.1382 38.482C23.572 33.7858 24.1744 28.9501 24.5559 24.086C24.8163 20.7684 24.8374 17.4405 24.8505 14.1125C24.8505 12.832 24.8742 11.5488 24.8453 10.2682C24.8084 8.64946 24.7637 7.03068 24.3349 5.44804C23.9797 4.13649 22.325 3.63304 21.2859 4.53667C20.8229 4.93943 20.4309 5.40673 20.0547 5.88178C18.2026 8.23379 16.3717 10.6039 14.5328 12.9636C12.6886 15.3286 10.6998 17.5695 8.4584 19.5833C7.61919 20.3398 6.77999 21.1014 5.73822 21.5997C5.05159 21.9276 4.60174 21.6978 4.49125 20.9517C4.39128 20.2727 4.43863 19.5988 4.56491 18.9301C5.09369 16.1289 5.92763 13.4103 6.91679 10.7355C7.44556 9.3104 8.17428 7.96529 8.61887 6.50657C9.01611 5.19761 8.39 3.84991 7.11672 3.27159C5.75137 2.65196 4.4702 2.99792 3.66256 4.21394C3.29952 4.7587 3.01803 5.34477 2.83125 5.96956C2.25249 7.90332 1.62374 9.82417 1.12653 11.7838C0.437282 14.4843 -0.0441434 17.1978 0.00320986 19.9913C0.0189943 20.9078 0.195254 21.7779 0.505681 22.6247C1.15547 24.4061 2.81284 25.1987 4.65961 24.6746C5.69612 24.3803 6.63793 23.9053 7.51922 23.3089C9.70274 21.8321 11.6495 20.0894 13.4778 18.2098C15.5298 16.0979 17.4845 13.9086 19.1445 11.4765C19.2234 11.3603 19.2839 11.1745 19.468 11.2287C19.6311 11.2751 19.5759 11.4533 19.5785 11.5772C19.6285 13.1211 19.6995 14.6676 19.7153 16.2115C19.7443 19.0076 19.8021 21.8063 19.739 24.6023C19.7285 25.0903 19.5496 25.413 19.126 25.6919V25.6893ZM19.2734 28.8261C18.9445 31.6532 18.3842 34.439 17.6555 37.1912C16.8241 40.3332 15.8271 43.421 14.2066 46.2687C13.0517 48.3032 11.6284 50.1388 9.63697 51.4736C9.01348 51.8919 8.34265 52.2094 7.56132 52.2507C6.5327 52.3075 5.80398 51.8686 5.31204 51.0063C4.74906 50.0201 4.61489 48.9512 4.64909 48.0786C4.62805 45.3212 5.49882 43.0544 6.74316 40.9012C8.19796 38.3839 10.1158 36.223 12.1888 34.1885C14.2487 32.167 16.4821 30.3365 18.7498 28.5473C18.8814 28.444 19.0129 28.2375 19.205 28.3408C19.3944 28.444 19.2918 28.6609 19.2734 28.8287V28.8261Z" fill="#493399"/>
</svg>
