<svg width="19" height="40" viewBox="0 0 19 40" fill="none" xmlns="http://www.w3.org/2000/svg">
<path d="M14.6179 17.4727C12.0744 19.1645 9.66764 21.025 7.49212 23.1694C5.79714 24.8393 4.24693 26.6184 3.06266 28.6854C2.27248 30.0654 1.64314 31.5029 1.42398 33.0894C1.18874 34.7851 1.30535 36.4352 2.14379 37.978C2.77514 39.1395 3.76036 39.8285 5.08336 39.9655C6.90501 40.1542 8.51956 39.5525 9.99135 38.5419C11.622 37.422 12.8384 35.9189 13.8739 34.2768C15.2391 32.1086 16.1801 29.7517 16.9201 27.3114C18.0159 23.6996 18.4763 19.9806 18.7678 16.2397C18.9669 13.6882 18.983 11.1288 18.993 8.56935C18.993 7.58449 19.0111 6.59765 18.989 5.6128C18.9609 4.36783 18.9267 3.12286 18.5989 1.90569C18.3275 0.897012 17.0628 0.509821 16.2686 1.20478C15.9147 1.51453 15.6151 1.87392 15.3276 2.23927C13.9121 4.04815 12.5127 5.87092 11.1073 7.68576C9.6978 9.50456 8.17775 11.2281 6.46468 12.7768C5.82328 13.3586 5.18188 13.9443 4.38567 14.3276C3.86089 14.5797 3.51707 14.403 3.43262 13.8292C3.35621 13.307 3.39241 12.7887 3.48892 12.2745C3.89306 10.1201 4.53043 8.02926 5.28644 5.97219C5.69058 4.87614 6.24753 3.84165 6.58733 2.71979C6.89093 1.71309 6.4124 0.676611 5.43925 0.231838C4.39572 -0.244704 3.41653 0.0213655 2.79927 0.95658C2.5218 1.37554 2.30666 1.82627 2.1639 2.30678C1.72156 3.79399 1.24101 5.27127 0.861 6.77834C0.33421 8.85527 -0.0337384 10.9421 0.00245327 13.0905C0.0145172 13.7954 0.149231 14.4646 0.386487 15.1158C0.883117 16.4859 2.14983 17.0955 3.5613 16.6924C4.3535 16.4661 5.07331 16.1007 5.74688 15.642C7.41571 14.5063 8.90359 13.166 10.301 11.7205C11.8693 10.0963 13.3632 8.41248 14.6319 6.54206C14.6923 6.4527 14.7385 6.30974 14.8792 6.35144C15.0039 6.38718 14.9617 6.52418 14.9637 6.61949C15.0019 7.80688 15.0562 8.99625 15.0682 10.1836C15.0904 12.334 15.1346 14.4864 15.0863 16.6368C15.0783 17.0121 14.9416 17.2603 14.6179 17.4747V17.4727ZM14.7305 19.8852C14.4791 22.0595 14.0509 24.2019 13.4939 26.3186C12.8585 28.735 12.0965 31.1098 10.8579 33.2999C9.97527 34.8646 8.88751 36.2763 7.36545 37.3029C6.88892 37.6245 6.37621 37.8688 5.77905 37.9005C4.99288 37.9442 4.43593 37.6067 4.05994 36.9435C3.62966 36.185 3.52712 35.3629 3.55326 34.6918C3.53717 32.5712 4.2027 30.8279 5.15373 29.1719C6.26562 27.2359 7.73139 25.574 9.31578 24.0093C10.8901 22.4546 12.5972 21.0468 14.3303 19.6708C14.4309 19.5914 14.5314 19.4325 14.6782 19.512C14.8229 19.5914 14.7445 19.7582 14.7305 19.8872V19.8852Z" fill="#493399"/>
</svg>
