<svg width="186" height="211" viewBox="0 0 186 211" fill="none" xmlns="http://www.w3.org/2000/svg">
<path d="M9.62067 114.843H176.379V207.795H9.62067V114.843Z" fill="#EBEBEB"/>
<path d="M125.069 114.843H131.483V207.795H125.069V114.843Z" fill="#4D6877"/>
<path d="M22.4483 150.1H115.448V178.948H22.4483V150.1Z" fill="white"/>
<path d="M9.62067 194.974H128.276V207.795H9.62067V194.974Z" fill="#E64F30"/>
<path d="M166.759 76.3799V63.5589H19.2414V76.3799L3.20691 108.432V114.843H182.793V108.432L166.759 76.3799Z" fill="white"/>
<path d="M19.2414 63.5589H166.759V76.3799H19.2414V63.5589Z" fill="white"/>
<g filter="url(#filter0_d_704_7347)">
<path d="M116.118 56.35C115.115 56.2043 114.158 55.8343 113.318 55.2674C112.478 54.7005 111.776 53.9514 111.266 53.0759C110.755 52.2004 110.449 51.221 110.369 50.2107C110.29 49.2004 110.44 48.1852 110.807 47.2406C111.04 46.6231 111.075 45.948 110.905 45.31C110.736 44.672 110.371 44.103 109.861 43.6828C107.613 41.795 105.055 40.3121 102.299 39.3C101.672 39.0669 100.986 39.0378 100.341 39.2168C99.6965 39.3958 99.1244 39.7738 98.7068 40.2969C98.0782 41.1006 97.2749 41.7507 96.3576 42.1978C95.4404 42.6449 94.4334 42.8773 93.4131 42.8773C92.3927 42.8773 91.3857 42.6449 90.4685 42.1978C89.5513 41.7507 88.7479 41.1006 88.1193 40.2969C87.7017 39.7738 87.1296 39.3958 86.4846 39.2168C85.8396 39.0378 85.1546 39.0669 84.5271 39.3C81.9828 40.2344 79.6039 41.5689 77.4802 43.2531C76.9449 43.6769 76.5594 44.2609 76.38 44.9197C76.2006 45.5785 76.2368 46.2774 76.4834 46.9141C76.88 47.8836 77.0438 48.9326 76.9618 49.9769C76.8798 51.0212 76.5542 52.0317 76.0111 52.9274C75.4679 53.8231 74.7225 54.5791 73.8344 55.1347C72.9464 55.6902 71.9405 56.03 70.8974 56.1266C70.2203 56.199 69.5842 56.4869 69.083 56.9479C68.5817 57.4089 68.2417 58.0187 68.1131 58.6875C67.793 60.2717 67.6318 61.8838 67.6318 63.5C67.6295 64.853 67.7387 66.204 67.9584 67.5391C68.0677 68.2293 68.4014 68.8642 68.9078 69.3458C69.4142 69.8273 70.0651 70.1286 70.7599 70.2031C71.8259 70.3032 72.8524 70.6571 73.7535 71.2352C74.6546 71.8134 75.4041 72.599 75.9393 73.5263C76.4744 74.4536 76.7797 75.4956 76.8295 76.5651C76.8793 77.6346 76.6722 78.7004 76.2256 79.6734C75.9332 80.3063 75.8607 81.0188 76.0196 81.6976C76.1784 82.3764 76.5594 82.9827 77.1021 83.4203C79.3367 85.2738 81.8709 86.7327 84.5959 87.7344C84.9443 87.8551 85.3099 87.9189 85.6787 87.9234C86.1843 87.9223 86.6823 87.8 87.1308 87.5668C87.5794 87.3335 87.9655 86.9961 88.2568 86.5828C88.8694 85.6903 89.6906 84.9608 90.649 84.4576C91.6075 83.9544 92.6743 83.6927 93.7568 83.6953C94.8057 83.6966 95.8398 83.9428 96.7767 84.4143C97.7136 84.8857 98.5276 85.5694 99.1537 86.4109C99.5702 86.9708 100.16 87.3771 100.832 87.5668C101.503 87.7564 102.218 87.7186 102.866 87.4594C105.358 86.4566 107.677 85.0706 109.741 83.3516C110.26 82.9229 110.629 82.341 110.795 81.6893C110.962 81.0377 110.918 80.3499 110.669 79.725C110.265 78.768 110.089 77.7301 110.154 76.6932C110.22 75.6564 110.526 74.649 111.048 73.7506C111.569 72.8522 112.293 72.0873 113.161 71.5164C114.029 70.9455 115.017 70.5842 116.049 70.4609C116.718 70.3684 117.34 70.0654 117.825 69.5957C118.31 69.126 118.633 68.514 118.747 67.8484C119.023 66.4148 119.173 64.9598 119.194 63.5C119.195 61.9602 119.051 60.4239 118.765 58.9109C118.649 58.26 118.33 57.6623 117.855 57.2025C117.38 56.7428 116.772 56.4445 116.118 56.35ZM102.007 63.5C102.007 65.1997 101.503 66.8612 100.559 68.2744C99.6142 69.6877 98.2721 70.7891 96.7017 71.4396C95.1314 72.09 93.4035 72.2602 91.7365 71.9286C90.0695 71.597 88.5382 70.7786 87.3364 69.5767C86.1345 68.3748 85.316 66.8436 84.9844 65.1766C84.6528 63.5095 84.823 61.7816 85.4735 60.2113C86.1239 58.641 87.2254 57.2988 88.6386 56.3546C90.0519 55.4103 91.7134 54.9062 93.4131 54.9062C95.6923 54.9062 97.8781 55.8117 99.4898 57.4233C101.101 59.0349 102.007 61.2208 102.007 63.5Z" fill="#E64F30"/>
<path d="M116.118 56.35C115.115 56.2043 114.158 55.8343 113.318 55.2674C112.478 54.7005 111.776 53.9514 111.266 53.0759C110.755 52.2004 110.449 51.221 110.369 50.2107C110.29 49.2004 110.44 48.1852 110.807 47.2406C111.04 46.6231 111.075 45.948 110.905 45.31C110.736 44.672 110.371 44.103 109.861 43.6828C107.613 41.795 105.055 40.3121 102.299 39.3C101.672 39.0669 100.986 39.0378 100.341 39.2168C99.6965 39.3958 99.1244 39.7738 98.7068 40.2969C98.0782 41.1006 97.2749 41.7507 96.3576 42.1978C95.4404 42.6449 94.4334 42.8773 93.4131 42.8773C92.3927 42.8773 91.3857 42.6449 90.4685 42.1978C89.5513 41.7507 88.7479 41.1006 88.1193 40.2969C87.7017 39.7738 87.1296 39.3958 86.4846 39.2168C85.8396 39.0378 85.1546 39.0669 84.5271 39.3C81.9828 40.2344 79.6039 41.5689 77.4802 43.2531C76.9449 43.6769 76.5594 44.2609 76.38 44.9197C76.2006 45.5785 76.2368 46.2774 76.4834 46.9141C76.88 47.8836 77.0438 48.9326 76.9618 49.9769C76.8798 51.0212 76.5542 52.0317 76.0111 52.9274C75.4679 53.8231 74.7225 54.5791 73.8344 55.1347C72.9464 55.6902 71.9405 56.03 70.8974 56.1266C70.2203 56.199 69.5842 56.4869 69.083 56.9479C68.5817 57.4089 68.2417 58.0187 68.1131 58.6875C67.793 60.2717 67.6318 61.8838 67.6318 63.5C67.6295 64.853 67.7387 66.204 67.9584 67.5391C68.0677 68.2293 68.4014 68.8642 68.9078 69.3458C69.4142 69.8273 70.0651 70.1286 70.7599 70.2031C71.8259 70.3032 72.8524 70.6571 73.7535 71.2352C74.6546 71.8134 75.4041 72.599 75.9393 73.5263C76.4744 74.4536 76.7797 75.4956 76.8295 76.5651C76.8793 77.6346 76.6722 78.7004 76.2256 79.6734C75.9332 80.3063 75.8607 81.0188 76.0196 81.6976C76.1784 82.3764 76.5594 82.9827 77.1021 83.4203C79.3367 85.2738 81.8709 86.7327 84.5959 87.7344C84.9443 87.8551 85.3099 87.9189 85.6787 87.9234C86.1843 87.9223 86.6823 87.8 87.1308 87.5668C87.5794 87.3335 87.9655 86.9961 88.2568 86.5828C88.8694 85.6903 89.6906 84.9608 90.649 84.4576C91.6075 83.9544 92.6743 83.6927 93.7568 83.6953C94.8057 83.6966 95.8398 83.9428 96.7767 84.4143C97.7136 84.8857 98.5276 85.5694 99.1537 86.4109C99.5702 86.9708 100.16 87.3771 100.832 87.5668C101.503 87.7564 102.218 87.7186 102.866 87.4594C105.358 86.4566 107.677 85.0706 109.741 83.3516C110.26 82.9229 110.629 82.341 110.795 81.6893C110.962 81.0377 110.918 80.3499 110.669 79.725C110.265 78.768 110.089 77.7301 110.154 76.6932C110.22 75.6564 110.526 74.649 111.048 73.7506C111.569 72.8522 112.293 72.0873 113.161 71.5164C114.029 70.9455 115.017 70.5842 116.049 70.4609C116.718 70.3684 117.34 70.0654 117.825 69.5957C118.31 69.126 118.633 68.514 118.747 67.8484C119.023 66.4148 119.173 64.9598 119.194 63.5C119.195 61.9602 119.051 60.4239 118.765 58.9109C118.649 58.26 118.33 57.6623 117.855 57.2025C117.38 56.7428 116.772 56.4445 116.118 56.35ZM102.007 63.5C102.007 65.1997 101.503 66.8612 100.559 68.2744C99.6142 69.6877 98.2721 70.7891 96.7017 71.4396C95.1314 72.09 93.4035 72.2602 91.7365 71.9286C90.0695 71.597 88.5382 70.7786 87.3364 69.5767C86.1345 68.3748 85.316 66.8436 84.9844 65.1766C84.6528 63.5095 84.823 61.7816 85.4735 60.2113C86.1239 58.641 87.2254 57.2988 88.6386 56.3546C90.0519 55.4103 91.7134 54.9062 93.4131 54.9062C95.6923 54.9062 97.8781 55.8117 99.4898 57.4233C101.101 59.0349 102.007 61.2208 102.007 63.5Z" stroke="#170603" stroke-width="6"/>
</g>
<path d="M3.20691 114.843V126.061C3.20691 132.151 8.33634 137.279 14.431 137.279C20.5238 137.279 25.6552 132.151 25.6552 126.061V114.843" fill="white"/>
<path d="M48.1034 114.843V126.061C48.1034 132.151 42.972 137.279 36.8793 137.279C30.7846 137.279 25.6552 132.151 25.6552 126.061V114.843" fill="#E64F30"/>
<path d="M70.5517 114.843V126.061C70.5517 132.151 65.4203 137.279 59.3276 137.279C53.2329 137.279 48.1035 132.151 48.1035 126.061V114.843" fill="white"/>
<path d="M93 114.843V126.061C93 132.151 87.8686 137.279 81.7759 137.279C75.6812 137.279 70.5518 132.151 70.5518 126.061V114.843" fill="#E64F30"/>
<path d="M93 114.843V126.061C93 132.151 98.1294 137.279 104.224 137.279C110.317 137.279 115.448 132.151 115.448 126.061V114.843" fill="white"/>
<path d="M115.448 114.843V126.061C115.448 132.151 120.578 137.279 126.672 137.279C132.765 137.279 137.897 132.151 137.897 126.061V114.843" fill="#E64F30"/>
<path d="M137.897 114.843V126.061C137.897 132.151 143.026 137.279 149.121 137.279C155.213 137.279 160.345 132.151 160.345 126.061V114.843" fill="white"/>
<path d="M160.345 114.843V126.061C160.345 132.151 165.474 137.279 171.569 137.279C177.662 137.279 182.793 132.151 182.793 126.061V114.843" fill="#E64F30"/>
<path d="M96.2069 178.948H83.3793L112.241 150.1H115.448V159.716L96.2069 178.948ZM70.5518 178.948H57.7242L86.5862 150.1H99.4138L70.5518 178.948ZM44.8966 178.948H32.069L60.9311 150.1H73.7587L44.8966 178.948ZM22.4483 175.742V162.921L35.2759 150.1H48.1035L22.4483 175.742Z" fill="#E4E7EA"/>
<path d="M138.397 144.19H169.466V200.884H138.397V144.19Z" fill="white" stroke="black"/>
<mask id="mask0_704_7347" style="mask-type:alpha" maskUnits="userSpaceOnUse" x="137" y="150" width="33" height="52">
<path d="M137.896 194.974V182.153L169.965 150.1V162.921L137.896 194.974ZM160.345 201.384H147.517L169.965 178.948V191.769L160.345 201.384Z" fill="#E4E7EA"/>
</mask>
<g mask="url(#mask0_704_7347)">
<path d="M138.396 144.19H169.465V200.884H138.396V144.19Z" fill="#E4E7EA" stroke="black"/>
</g>
<path d="M137.897 162.921H144.31V169.332H137.897V162.921Z" fill="#668796"/>
<path d="M170.283 76.3733C170.074 75.9566 169.966 75.497 169.966 75.0311V63.3537C169.966 61.6968 168.622 60.3537 166.966 60.3537H121.655C119.998 60.3537 118.655 61.6968 118.655 63.3537V63.7642C118.655 65.421 119.998 66.7642 121.655 66.7642H160.552C162.209 66.7642 163.552 68.1073 163.552 69.7642V70.1746C163.552 71.8315 162.209 73.1746 160.552 73.1746H113.97C112.313 73.1746 110.97 74.5178 110.97 76.1746V76.5851C110.97 78.242 112.313 79.5851 113.97 79.5851H162.98C164.116 79.5851 165.155 80.2269 165.663 81.2429L179.367 108.636C179.511 108.924 179.586 109.241 179.586 109.564V109.564C179.586 110.709 178.657 111.638 177.512 111.638H8.4874C7.34196 111.638 6.41339 110.709 6.41339 109.564V109.564C6.41339 109.241 6.48841 108.924 6.63251 108.636L20.3346 81.243C20.8429 80.2269 21.8815 79.5851 23.0177 79.5851H72.9523C74.6091 79.5851 75.9523 78.242 75.9523 76.5851V76.1746C75.9523 74.5178 74.6091 73.1746 72.9523 73.1746H25.4483C23.7914 73.1746 22.4483 71.8315 22.4483 70.1746V69.7641C22.4483 68.1073 23.7914 66.7642 25.4483 66.7642H64.3448C66.0017 66.7642 67.3448 65.421 67.3448 63.7642V63.3537C67.3448 61.6968 66.0017 60.3537 64.3448 60.3537H19.0345C17.3776 60.3537 16.0345 61.6968 16.0345 63.3537V75.0311C16.0345 75.497 15.926 75.9566 15.7175 76.3733L0.316995 107.158C0.108533 107.575 0 108.035 0 108.501V126.061C0 130.313 2.00578 134.313 5.1312 136.956C5.89737 137.604 6.41379 138.524 6.41379 139.527V208C6.41379 209.657 7.75694 211 9.41379 211H176.586C178.243 211 179.586 209.657 179.586 208V139.526C179.586 138.523 180.102 137.604 180.868 136.956C183.993 134.313 186 130.313 186 126.061V108.501C186 108.035 185.891 107.575 185.683 107.158L170.283 76.3733ZM126.672 134.074C122.181 134.074 118.655 130.548 118.655 126.061V121.048C118.655 119.391 119.998 118.048 121.655 118.048H131.69C133.347 118.048 134.69 119.391 134.69 121.048V126.061C134.69 130.548 131.162 134.074 126.672 134.074ZM28.8621 121.048C28.8621 119.391 30.2052 118.048 31.8621 118.048H41.8965C43.5534 118.048 44.8966 119.391 44.8966 121.048V126.061C44.8966 130.548 41.3686 134.074 36.8793 134.074C32.3881 134.074 28.8621 130.548 28.8621 126.061V121.048ZM51.3103 121.048C51.3103 119.391 52.6535 118.048 54.3103 118.048H64.3448C66.0017 118.048 67.3448 119.391 67.3448 121.048V126.061C67.3448 130.548 63.8168 134.074 59.3276 134.074C54.8363 134.074 51.3103 130.548 51.3103 126.061V121.048ZM73.7586 121.048C73.7586 119.391 75.1018 118.048 76.7586 118.048H86.7931C88.45 118.048 89.7931 119.391 89.7931 121.048V126.061C89.7931 130.548 86.2651 134.074 81.7759 134.074C77.2846 134.074 73.7586 130.548 73.7586 126.061V121.048ZM96.2069 121.048C96.2069 119.391 97.55 118.048 99.2069 118.048H109.241C110.898 118.048 112.241 119.391 112.241 121.048V126.061C112.241 130.548 108.713 134.074 104.224 134.074C99.7329 134.074 96.2069 130.548 96.2069 126.061V121.048ZM141.103 121.048C141.103 119.391 142.447 118.048 144.103 118.048H154.138C155.795 118.048 157.138 119.391 157.138 121.048V126.061C157.138 130.548 153.61 134.074 149.121 134.074C144.629 134.074 141.103 130.548 141.103 126.061V121.048ZM19.4483 118.048C21.1051 118.048 22.4483 119.391 22.4483 121.048V126.061C22.4483 130.548 18.9203 134.074 14.431 134.074C9.93978 134.074 6.41379 130.548 6.41379 126.061V121.048C6.41379 119.391 7.75694 118.048 9.41379 118.048H19.4483ZM14.431 140.485C17.5404 140.485 20.4956 139.562 22.8715 137.824C24.4746 136.651 26.892 136.601 28.5003 137.767C33.4959 141.388 40.5017 141.574 45.5367 137.6C45.611 137.551 45.6834 137.499 45.7541 137.446C47.1886 136.368 49.0726 136.303 50.4815 137.414C55.4998 141.372 62.7911 141.699 67.985 137.6C68.0593 137.551 68.1317 137.499 68.2024 137.446C69.6369 136.368 71.5209 136.303 72.9298 137.414C77.9481 141.372 85.2394 141.699 90.4333 137.6C90.5076 137.551 90.5799 137.499 90.6507 137.446C92.0851 136.368 93.9692 136.303 95.3781 137.414C100.396 141.372 107.688 141.699 112.882 137.6C112.949 137.556 113.014 137.509 113.079 137.461C114.526 136.385 116.426 136.318 117.856 137.417C119.25 138.489 120.866 139.323 122.601 139.884C123.996 140.336 125.069 141.56 125.069 143.027V188.769C125.069 190.425 123.725 191.769 122.069 191.769H15.8272C14.1703 191.769 12.8272 190.425 12.8272 188.769V141.821C12.8272 141.06 13.67 140.485 14.431 140.485V140.485ZM12.8276 201.179C12.8276 199.522 14.1707 198.179 15.8276 198.179H122.069C123.726 198.179 125.069 199.522 125.069 201.179V201.59C125.069 203.246 123.726 204.59 122.069 204.59H15.8276C14.1707 204.59 12.8276 203.246 12.8276 201.59V201.179ZM173.172 201.59C173.172 203.246 171.829 204.59 170.172 204.59H134.483C132.826 204.59 131.483 203.246 131.483 201.59V141.602C131.483 140.352 132.272 139.256 133.376 138.669C134.012 138.33 134.619 137.952 135.191 137.54C136.737 136.427 139.011 136.467 140.533 137.612C145.54 141.382 152.673 141.629 157.778 137.6C157.814 137.576 157.85 137.552 157.885 137.527C159.388 136.462 161.323 136.415 162.771 137.553C165.203 139.466 168.301 140.485 171.569 140.485V140.485C172.33 140.485 173.172 141.059 173.172 141.821L173.172 201.59ZM179.586 126.061C179.586 130.548 176.058 134.074 171.569 134.074C167.078 134.074 163.552 130.548 163.552 126.061V121.048C163.552 119.391 164.895 118.048 166.552 118.048H176.586C178.243 118.048 179.586 119.391 179.586 121.048V126.061Z" fill="#170603"/>
<path d="M137.897 162.921H144.31V169.332H137.897V162.921ZM118.655 146.895H19.2414V182.153H118.655V146.895ZM112.241 175.742H25.6552V153.306H112.241V175.742Z" fill="#170603"/>
<defs>
<filter id="filter0_d_704_7347" x="24.6318" y="0.100983" width="137.563" height="134.822" filterUnits="userSpaceOnUse" color-interpolation-filters="sRGB">
<feFlood flood-opacity="0" result="BackgroundImageFix"/>
<feColorMatrix in="SourceAlpha" type="matrix" values="0 0 0 0 0 0 0 0 0 0 0 0 0 0 0 0 0 0 127 0" result="hardAlpha"/>
<feOffset dy="4"/>
<feGaussianBlur stdDeviation="20"/>
<feComposite in2="hardAlpha" operator="out"/>
<feColorMatrix type="matrix" values="0 0 0 0 0.0901961 0 0 0 0 0.0235294 0 0 0 0 0.0117647 0 0 0 0.1 0"/>
<feBlend mode="normal" in2="BackgroundImageFix" result="effect1_dropShadow_704_7347"/>
<feBlend mode="normal" in="SourceGraphic" in2="effect1_dropShadow_704_7347" result="shape"/>
</filter>
</defs>
</svg>
