<svg width="40" height="41" viewBox="0 0 40 41" fill="none" xmlns="http://www.w3.org/2000/svg">
<g id="Category/Clothing">
<g id="Group">
<g id="Vector">
<path d="M33.9938 13.9854C34.1596 13.9854 34.3186 13.9196 34.4358 13.8024C34.553 13.6852 34.6188 13.5262 34.6188 13.3604V9.57918C34.622 9.03443 34.4459 8.50375 34.1179 8.06885C33.7898 7.63395 33.3279 7.31894 32.8032 7.17231L29.5482 6.23856C29.5782 4.74481 28.3913 3.16981 26.817 3.16668H15.9007C14.3526 3.15106 13.0682 4.69043 13.047 6.27731L10.1432 7.07731C9.61654 7.22595 9.15251 7.54188 8.82115 7.97741C8.48979 8.41294 8.3091 8.94444 8.30635 9.49168C8.32947 9.51856 7.21447 9.79793 7.21385 9.80793C6.68709 9.95602 6.22308 10.272 5.89233 10.7079C5.56158 11.1438 5.38216 11.6758 5.38135 12.2229V27.5542C5.38135 27.7199 5.4472 27.8789 5.56441 27.9961C5.68162 28.1133 5.84059 28.1792 6.00635 28.1792C6.17211 28.1792 6.33108 28.1133 6.44829 27.9961C6.5655 27.8789 6.63135 27.7199 6.63135 27.5542V12.2229C6.63142 11.9488 6.72102 11.6822 6.88653 11.4637C7.05203 11.2452 7.28437 11.0867 7.54822 11.0123L8.30635 10.8017V32.5042C8.30734 33.2813 8.61649 34.0263 9.16599 34.5758C9.71549 35.1253 10.4605 35.4344 11.2376 35.4354H30.4232C30.3737 35.8431 30.177 36.2186 29.87 36.4914C29.563 36.7642 29.167 36.9154 28.7563 36.9167H8.3126C7.86603 36.9154 7.43822 36.7369 7.12303 36.4206C6.80784 36.1042 6.63101 35.6758 6.63135 35.2292V30.0542C6.63135 29.8884 6.5655 29.7295 6.44829 29.6122C6.33108 29.495 6.17211 29.4292 6.00635 29.4292C5.84059 29.4292 5.68162 29.495 5.56441 29.6122C5.4472 29.7295 5.38135 29.8884 5.38135 30.0542V35.2292C5.38135 36.0072 5.68997 36.7534 6.23951 37.3041C6.78905 37.8548 7.53461 38.165 8.3126 38.1667H28.7563C29.4976 38.1593 30.2093 37.875 30.7517 37.3696C31.2941 36.8642 31.6279 36.1743 31.6876 35.4354C32.4648 35.4346 33.2099 35.1255 33.7594 34.576C34.3089 34.0264 34.618 33.2813 34.6188 32.5042V15.8604C34.6188 15.6947 34.553 15.5357 34.4358 15.4185C34.3186 15.3013 34.1596 15.2354 33.9938 15.2354C33.8281 15.2354 33.6691 15.3013 33.5519 15.4185C33.4347 15.5357 33.3688 15.6947 33.3688 15.8604V32.5042C33.3685 32.95 33.1913 33.3774 32.8761 33.6926C32.5608 34.0079 32.1334 34.1851 31.6876 34.1854H11.2376C10.7919 34.1849 10.3645 34.0076 10.0493 33.6925C9.73413 33.3773 9.55684 32.9499 9.55635 32.5042V9.49168C9.55575 9.21665 9.64579 8.94907 9.81255 8.73035C9.9793 8.51163 10.2135 8.35395 10.4788 8.28168L13.2913 7.50668C13.2763 7.67231 16.327 12.3704 16.4695 12.6279C16.6375 12.89 16.8614 13.1116 17.1253 13.2767C17.3892 13.4418 17.6864 13.5464 17.9956 13.5828C18.3047 13.6193 18.6181 13.5868 18.9132 13.4876C19.2082 13.3884 19.4776 13.225 19.702 13.0092L21.492 11.0717L22.8438 12.6029V19.2854C22.8045 21.0523 19.8713 21.0542 19.8313 19.2854V15.1167C19.8313 14.9509 19.7655 14.792 19.6483 14.6747C19.5311 14.5575 19.3721 14.4917 19.2063 14.4917C19.0406 14.4917 18.8816 14.5575 18.7644 14.6747C18.6472 14.792 18.5813 14.9509 18.5813 15.1167V19.2854C18.6813 22.7079 23.9938 22.7092 24.0938 19.2854V13.4773C24.536 13.5952 25.0047 13.5635 25.427 13.3871C25.8492 13.2108 26.2013 12.8997 26.4282 12.5023L29.1263 7.81793C29.1895 7.70438 29.2453 7.58684 29.2932 7.46606L32.4595 8.37418C32.7222 8.44752 32.9536 8.6052 33.1179 8.82294C33.2822 9.04068 33.3704 9.3064 33.3688 9.57918V13.3604C33.3688 13.5262 33.4347 13.6852 33.5519 13.8024C33.6691 13.9196 33.8281 13.9854 33.9938 13.9854ZM25.9357 4.41668L21.5138 9.20543L17.2863 4.41668H25.9357ZM18.8145 12.1292C18.7232 12.2127 18.6148 12.2753 18.4968 12.3126C18.3788 12.3498 18.2542 12.3609 18.1315 12.3449C18.0088 12.329 17.8911 12.2864 17.7865 12.2202C17.682 12.154 17.5932 12.0658 17.5263 11.9617L14.602 7.33856C14.447 7.08718 14.3509 6.80399 14.3208 6.51021C14.2908 6.21643 14.3276 5.91965 14.4284 5.6421C14.5293 5.36455 14.6917 5.1134 14.9033 4.90747C15.115 4.70154 15.3705 4.54615 15.6507 4.45293L20.6607 10.1298L18.8145 12.1292ZM25.3451 11.8792C25.2825 11.9843 25.1981 12.0748 25.0976 12.1445C24.997 12.2142 24.8827 12.2615 24.7623 12.2832C24.6419 12.3049 24.5182 12.3005 24.3996 12.2702C24.2811 12.24 24.1704 12.1847 24.0751 12.1079L22.3451 10.1473L27.4507 4.61856C27.7657 4.83001 28.0114 5.12974 28.1568 5.48018C28.3022 5.83062 28.341 6.21618 28.2682 6.58856C28.4007 6.78231 25.4707 11.5829 25.3451 11.8792Z" fill="#230E09"/>
<path d="M25.3451 11.8792C25.2825 11.9843 25.1981 12.0748 25.0976 12.1445C24.997 12.2142 24.8827 12.2615 24.7623 12.2832C24.6419 12.3049 24.5182 12.3005 24.3996 12.2702C24.2811 12.24 24.1704 12.1847 24.0751 12.1079L22.3451 10.1473L27.4507 4.61856C27.7657 4.83001 28.0114 5.12974 28.1568 5.48018C28.3022 5.83062 28.341 6.21618 28.2682 6.58856C28.4007 6.78231 25.4707 11.5829 25.3451 11.8792Z" fill="#E64F30"/>
<path d="M18.8145 12.1292C18.7232 12.2127 18.6148 12.2753 18.4968 12.3126C18.3788 12.3498 18.2542 12.3609 18.1315 12.3449C18.0088 12.329 17.8911 12.2864 17.7865 12.2202C17.682 12.154 17.5932 12.0658 17.5263 11.9617L14.602 7.33856C14.447 7.08718 14.3509 6.80399 14.3208 6.51021C14.2908 6.21643 14.3276 5.91965 14.4284 5.6421C14.5293 5.36455 14.6917 5.1134 14.9033 4.90747C15.115 4.70154 15.3705 4.54615 15.6507 4.45293L20.6607 10.1298L18.8145 12.1292Z" fill="#E64F30"/>
</g>
<path id="Vector_2" d="M21.3369 14.4248C21.4846 14.4248 21.6262 14.3661 21.7307 14.2617C21.8351 14.1572 21.8938 14.0156 21.8938 13.8679C21.8938 13.7202 21.8351 13.5786 21.7307 13.4741C21.6262 13.3697 21.4846 13.311 21.3369 13.311C21.1892 13.311 21.0476 13.3697 20.9431 13.4741C20.8387 13.5786 20.78 13.7202 20.78 13.8679C20.78 14.0156 20.8387 14.1572 20.9431 14.2617C21.0476 14.3661 21.1892 14.4248 21.3369 14.4248ZM21.3369 16.956C21.4847 16.956 21.6264 16.8973 21.7309 16.7928C21.8354 16.6883 21.8941 16.5466 21.8941 16.3988C21.8941 16.2511 21.8354 16.1093 21.7309 16.0049C21.6264 15.9004 21.4847 15.8417 21.3369 15.8417C21.1891 15.8417 21.0474 15.9004 20.9429 16.0049C20.8384 16.1093 20.7797 16.2511 20.7797 16.3988C20.7797 16.5466 20.8384 16.6883 20.9429 16.7928C21.0474 16.8973 21.1891 16.956 21.3369 16.956ZM21.3369 19.4867C21.4846 19.4867 21.6262 19.428 21.7307 19.3236C21.8351 19.2191 21.8938 19.0775 21.8938 18.9298C21.8938 18.7821 21.8351 18.6404 21.7307 18.536C21.6262 18.4316 21.4846 18.3729 21.3369 18.3729C21.1892 18.3729 21.0476 18.4316 20.9431 18.536C20.8387 18.6404 20.78 18.7821 20.78 18.9298C20.78 19.0775 20.8387 19.2191 20.9431 19.3236C21.0476 19.428 21.1892 19.4867 21.3369 19.4867ZM11.6606 15.2167C11.4949 15.2167 11.3359 15.2825 11.2187 15.3997C11.1015 15.5169 11.0356 15.6759 11.0356 15.8417C11.0356 16.0074 11.1015 16.1664 11.2187 16.2836C11.3359 16.4008 11.4949 16.4667 11.6606 16.4667H16.3756C16.5414 16.4667 16.7004 16.4008 16.8176 16.2836C16.9348 16.1664 17.0006 16.0074 17.0006 15.8417C17.0006 15.6759 16.9348 15.5169 16.8176 15.3997C16.7004 15.2825 16.5414 15.2167 16.3756 15.2167H11.6606Z" fill="black"/>
</g>
</g>
</svg>
