<svg width="40" height="40" viewBox="0 0 40 40" fill="none" xmlns="http://www.w3.org/2000/svg">
<g id="Category/Furniture">
<g id="Group">
<g id="Group_2">
<path id="Vector" d="M26.8359 21.1719H13.1641C10.2562 21.1719 7.89062 23.5375 7.89062 26.4453V29.7656C7.89062 30.197 8.24047 30.5469 8.67188 30.5469C9.10328 30.5469 9.45312 30.197 9.45312 29.7656V26.4453C9.45312 24.3991 11.1179 22.7344 13.1641 22.7344H26.8359C28.8821 22.7344 30.5469 24.3991 30.5469 26.4453V29.7656C30.5469 30.197 30.8966 30.5469 31.3281 30.5469C31.7595 30.5469 32.1094 30.197 32.1094 29.7656V26.4453C32.1094 23.5375 29.7437 21.1719 26.8359 21.1719ZM25.8929 10.3962C26.1982 10.7013 26.6926 10.7012 26.9978 10.3962L27.422 9.97202L27.8461 10.3962C28.1514 10.7013 28.6458 10.7012 28.951 10.3962C29.2561 10.0911 29.2561 9.59639 28.951 9.29124L28.5269 8.8671L28.951 8.44296C29.2561 8.13788 29.2561 7.64319 28.951 7.33803C28.6459 7.03303 28.1513 7.03303 27.8461 7.33803L27.4219 7.76225L26.9977 7.33811C26.6926 7.03311 26.198 7.03311 25.8928 7.33811C25.5877 7.64319 25.5877 8.13788 25.8928 8.44303L26.317 8.86717L25.8928 9.29131C25.5877 9.59639 25.5877 10.0911 25.8929 10.3962ZM18.471 10.3962C18.7763 10.7013 19.2707 10.7012 19.5759 10.3962L20.0001 9.97202L20.4242 10.3962C20.7295 10.7013 21.2239 10.7012 21.5291 10.3962C21.8342 10.0911 21.8342 9.59639 21.5291 9.29124L21.105 8.8671L21.5291 8.44296C21.8342 8.13788 21.8342 7.64319 21.5291 7.33803C21.224 7.03303 20.7295 7.03303 20.4242 7.33803L20 7.76225L19.5759 7.33811C19.2707 7.03311 18.7762 7.03311 18.4709 7.33811C18.1659 7.64319 18.1659 8.13788 18.4709 8.44303L18.8951 8.86717L18.4709 9.29131C18.1659 9.59639 18.1659 10.0911 18.471 10.3962ZM21.9866 15.0837L22.4108 15.5078L21.9866 15.9319C21.6816 16.237 21.6816 16.7317 21.9866 17.0369C22.292 17.342 22.7863 17.3419 23.0916 17.0369L23.5157 16.6127L23.9398 17.0369C24.2452 17.342 24.7395 17.3419 25.0448 17.0369C25.3498 16.7318 25.3498 16.2371 25.0448 15.9319L24.6206 15.5078L25.0448 15.0837C25.3498 14.7786 25.3498 14.2839 25.0448 13.9787C24.7396 13.6737 24.2451 13.6737 23.9398 13.9787L23.5156 14.4029L23.0915 13.9787C22.7863 13.6737 22.2918 13.6737 21.9866 13.9787C21.6815 14.2839 21.6815 14.7786 21.9866 15.0837ZM14.5648 15.0837L14.9889 15.5078L14.5648 15.9319C14.2597 16.237 14.2597 16.7317 14.5648 17.0369C14.8701 17.342 15.3645 17.3419 15.6697 17.0369L16.0938 16.6127L16.518 17.0369C16.8233 17.342 17.3177 17.3419 17.6229 17.0369C17.928 16.7318 17.928 16.2371 17.6229 15.9319L17.1987 15.5078L17.6229 15.0837C17.928 14.7786 17.928 14.2839 17.6229 13.9787C17.3177 13.6737 16.8232 13.6737 16.518 13.9787L16.0938 14.4029L15.6696 13.9787C15.3645 13.6737 14.8699 13.6737 14.5647 13.9787C14.2596 14.2839 14.2596 14.7786 14.5648 15.0837ZM11.0491 10.3962C11.3545 10.7013 11.8488 10.7012 12.1541 10.3962L12.5782 9.97202L13.0023 10.3962C13.3077 10.7013 13.802 10.7012 14.1073 10.3962C14.4123 10.0911 14.4123 9.59639 14.1073 9.29124L13.6831 8.8671L14.1073 8.44296C14.4123 8.13788 14.4123 7.64319 14.1073 7.33803C13.8021 7.03303 13.3076 7.03303 13.0023 7.33803L12.5781 7.76225L12.154 7.33811C11.8488 7.03311 11.3543 7.03311 11.0491 7.33811C10.744 7.64319 10.744 8.13788 11.0491 8.44303L11.4732 8.86717L11.0491 9.29131C10.744 9.59639 10.744 10.0911 11.0491 10.3962Z" fill="#E64F30"/>
</g>
<path id="Vector_2" d="M39.9208 16.7878C39.8747 14.8973 38.2732 13.3594 36.3508 13.3594H34.4531V8.20312C34.4531 4.58461 31.5091 1.64062 27.8906 1.64062H12.1094C8.49085 1.64062 5.54686 4.58461 5.54686 8.20312V13.3594H3.64913C1.72671 13.3594 0.1253 14.8973 0.0792064 16.7878C0.0336596 18.6541 1.43249 20.1749 3.20311 20.3694V32.1094C3.20311 33.8325 4.60499 35.2344 6.32811 35.2344H7.89061V37.5781C7.89061 38.0095 8.24046 38.3594 8.67186 38.3594H11.7969C11.9711 38.3594 12.1403 38.3012 12.2776 38.1939C12.415 38.0867 12.5125 37.9367 12.5548 37.7677L13.1881 35.2344H26.8119L27.4452 37.7677C27.4875 37.9367 27.585 38.0867 27.7223 38.1939C27.8597 38.3012 28.0289 38.3594 28.2031 38.3594H31.3281C31.7595 38.3594 32.1094 38.0095 32.1094 37.5781V35.2344H33.6719C35.395 35.2344 36.7969 33.8325 36.7969 32.1094V20.3685C38.5668 20.1741 39.9664 18.6557 39.9208 16.7878ZM12.1094 3.20312H27.8906C30.6476 3.20312 32.8906 5.44609 32.8906 8.20312V13.4583C31.5443 13.8061 30.5469 15.0309 30.5469 16.4844V28.9844H9.45311V16.4844C9.45311 15.0309 8.45569 13.8061 7.10936 13.4583V8.20312C7.10936 5.44609 9.35233 3.20312 12.1094 3.20312ZM11.1869 36.7969H9.45311V35.2344H11.5775L11.1869 36.7969ZM30.5469 36.7969H28.8131L28.4225 35.2344H30.5469V36.7969ZM36.4062 18.8281H36.0156C35.5841 18.8281 35.2344 19.1779 35.2344 19.6094V32.1094C35.2344 32.9709 34.5334 33.6719 33.6719 33.6719H6.32811C5.46655 33.6719 4.76561 32.9709 4.76561 32.1094V19.6094C4.76561 19.1779 4.41577 18.8281 3.98436 18.8281H3.59374C2.49905 18.8281 1.61428 17.9299 1.64124 16.8259C1.66686 15.776 2.56757 14.9219 3.64913 14.9219H6.32811C7.18967 14.9219 7.89061 15.6228 7.89061 16.4844V29.7656C7.89061 30.197 8.24046 30.5469 8.67186 30.5469H31.3281C31.7595 30.5469 32.1094 30.197 32.1094 29.7656V16.4844C32.1094 15.6228 32.8103 14.9219 33.6719 14.9219H36.3508C37.4324 14.9219 38.3331 15.776 38.3587 16.8259C38.3857 17.929 37.5017 18.8281 36.4062 18.8281Z" fill="#170603"/>
</g>
</g>
</svg>
