<svg width="40" height="41" viewBox="0 0 40 41" fill="none" xmlns="http://www.w3.org/2000/svg">
<g id="Category/Technology">
<g id="Group">
<path id="Vector" d="M5 31.5834H3.125C2.95924 31.5834 2.80027 31.6492 2.68306 31.7664C2.56585 31.8836 2.5 32.0426 2.5 32.2084C2.5 32.3741 2.56585 32.5331 2.68306 32.6503C2.80027 32.7675 2.95924 32.8334 3.125 32.8334H5C5.16576 32.8334 5.32473 32.7675 5.44194 32.6503C5.55915 32.5331 5.625 32.3741 5.625 32.2084C5.625 32.0426 5.55915 31.8836 5.44194 31.7664C5.32473 31.6492 5.16576 31.5834 5 31.5834ZM7.5 31.5834H6.875C6.70924 31.5834 6.55027 31.6492 6.43306 31.7664C6.31585 31.8836 6.25 32.0426 6.25 32.2084C6.25 32.3741 6.31585 32.5331 6.43306 32.6503C6.55027 32.7675 6.70924 32.8334 6.875 32.8334H7.5C7.66576 32.8334 7.82473 32.7675 7.94194 32.6503C8.05915 32.5331 8.125 32.3741 8.125 32.2084C8.125 32.0426 8.05915 31.8836 7.94194 31.7664C7.82473 31.6492 7.66576 31.5834 7.5 31.5834Z" fill="#230E09"/>
<g id="Vector_2">
<path d="M36.875 13.4584H35.625V8.45837C35.6241 7.7956 35.3605 7.16022 34.8918 6.69157C34.4232 6.22291 33.7878 5.95924 33.125 5.95837H6.875C6.21219 5.95912 5.57674 6.22275 5.10806 6.69143C4.63938 7.16011 4.37574 7.79556 4.375 8.45837V19.7084H3.125C2.46219 19.7091 1.82673 19.9728 1.35806 20.4414C0.889376 20.9101 0.625744 21.5456 0.625 22.2084V32.2084C0.625744 32.8712 0.889376 33.5066 1.35806 33.9753C1.82673 34.444 2.46219 34.7076 3.125 34.7084H9.375C10.0378 34.7075 10.6732 34.4438 11.1418 33.9752C11.6105 33.5065 11.8741 32.8711 11.875 32.2084V30.3334H17.3242L17.0117 31.5834H15C14.8342 31.5834 14.6753 31.6492 14.5581 31.7664C14.4408 31.8836 14.375 32.0426 14.375 32.2084V34.0834C14.375 34.2491 14.4408 34.4081 14.5581 34.5253C14.6753 34.6425 14.8342 34.7084 15 34.7084H36.875C37.5378 34.7075 38.1732 34.4438 38.6418 33.9752C39.1105 33.5065 39.3741 32.8711 39.375 32.2084V15.9584C39.3741 15.2956 39.1105 14.6602 38.6418 14.1916C38.1732 13.7229 37.5378 13.4592 36.875 13.4584ZM10.625 32.2084C10.6246 32.5398 10.4927 32.8575 10.2584 33.0918C10.0241 33.3261 9.70639 33.4579 9.375 33.4584H3.125C2.79361 33.4579 2.47592 33.3261 2.2416 33.0918C2.00727 32.8575 1.87543 32.5398 1.875 32.2084V22.2084C1.87543 21.877 2.00727 21.5593 2.2416 21.325C2.47592 21.0906 2.79361 20.9588 3.125 20.9584H3.92422L4.40703 22.406C4.44852 22.5305 4.52811 22.6387 4.63453 22.7154C4.74096 22.7921 4.86882 22.8334 5 22.8334H7.5C7.63118 22.8334 7.75904 22.7921 7.86547 22.7154C7.97189 22.6387 8.05148 22.5305 8.09297 22.406L8.57578 20.9584H9.375C9.70639 20.9588 10.0241 21.0906 10.2584 21.325C10.4927 21.5593 10.6246 21.877 10.625 22.2084V32.2084ZM5.24219 20.9584H7.25781L7.04922 21.5834H5.45078L5.24219 20.9584ZM11.875 29.0834V27.2084H23.125V29.0834H11.875ZM23.125 30.3334V31.5834H22.9883L22.6758 30.3334H23.125ZM21.6992 31.5834H18.3008L18.6133 30.3334H21.3867L21.6992 31.5834ZM15.625 33.4584V32.8334H23.2039C23.2611 33.0524 23.3479 33.2627 23.4617 33.4584H15.625ZM23.125 15.9584V25.9584H11.875V22.2084C11.8741 21.5456 11.6105 20.9102 11.1418 20.4416C10.6732 19.9729 10.0378 19.7092 9.375 19.7084H5.625V8.45837C5.62543 8.12699 5.75727 7.8093 5.9916 7.57497C6.22592 7.34064 6.54361 7.20881 6.875 7.20837H33.125C33.4564 7.20881 33.7741 7.34064 34.0084 7.57497C34.2427 7.8093 34.3746 8.12699 34.375 8.45837V13.4584H25.625C24.9622 13.4592 24.3268 13.7229 23.8582 14.1916C23.3895 14.6602 23.1259 15.2956 23.125 15.9584ZM38.125 32.2084C38.1246 32.5398 37.9927 32.8575 37.7584 33.0918C37.5241 33.3261 37.2064 33.4579 36.875 33.4584H25.625C25.2936 33.4579 24.9759 33.3261 24.7416 33.0918C24.5073 32.8575 24.3754 32.5398 24.375 32.2084V15.9584C24.3754 15.627 24.5073 15.3093 24.7416 15.075C24.9759 14.8406 25.2936 14.7088 25.625 14.7084H36.875C37.2064 14.7088 37.5241 14.8406 37.7584 15.075C37.9927 15.3093 38.1246 15.627 38.125 15.9584V32.2084Z" fill="#230E09"/>
<path d="M5.24219 20.9584H7.25781L7.04922 21.5834H5.45078L5.24219 20.9584Z" fill="#E64F30"/>
<path d="M21.6992 31.5834H18.3008L18.6133 30.3334H21.3867L21.6992 31.5834Z" fill="#E64F30"/>
</g>
<g id="Vector_3">
<path d="M36.875 15.3334H25.625C25.4592 15.3334 25.3003 15.3992 25.1831 15.5164C25.0658 15.6336 25 15.7926 25 15.9584V30.3334C25 30.4991 25.0658 30.6581 25.1831 30.7753C25.3003 30.8925 25.4592 30.9584 25.625 30.9584H36.875C37.0408 30.9584 37.1997 30.8925 37.3169 30.7753C37.4342 30.6581 37.5 30.4991 37.5 30.3334V15.9584C37.5 15.7926 37.4342 15.6336 37.3169 15.5164C37.1997 15.3992 37.0408 15.3334 36.875 15.3334ZM36.25 29.7084H26.25V16.5834H36.25V29.7084Z" fill="#230E09"/>
</g>
<path id="Vector_4" d="M31.3394 33.012C31.6845 33.012 31.9644 32.7321 31.9644 32.387C31.9644 32.0418 31.6845 31.762 31.3394 31.762C30.9942 31.762 30.7144 32.0418 30.7144 32.387C30.7144 32.7321 30.9942 33.012 31.3394 33.012Z" fill="#E64F30"/>
</g>
</g>
</svg>
